<svg id="_x31_" xmlns="http://www.w3.org/2000/svg" width="102" heigth="23" viewBox="0 0 462.5 103.3">
<style>.lab0{enable-background:new}.lab1{fill:#fff;}.lab2{fill:#ea524e}</style>
<path class="lab0 lab1" d="M72.1 103.3c-1.8 0-3.7-.4-5-1.4-.8-.7-1.9-2.1-1.9-4.4V49.8h10.1v42.6c0 .6-.1 1.6.7 2.3.3.2.9.6 2.5.6h29.4v8H72.1z"/><g class="lab0"><path class="lab1" d="M124.3 55.2c1.9-4.5 4-6 8.8-6 4.6 0 6.9 1.5 8.8 6l20.2 48.1h-10.6L146 89.8h-25.8l-5.4 13.5h-10.6l20.1-48.1zm-1.5 27.4h20.6l-8.7-21.8c-.3-.8-.8-2.2-1.5-2.2s-1.2 1.5-1.5 2.2l-8.9 21.8zM198.1 49.8c2.9 0 6.9.3 9.7 3.2 3 3.1 3.4 8 3.4 11.5 0 2.9-.2 5.9-2.5 8.7-1.5 1.8-3.1 2.6-5 2.8v.3c2.5.2 4.6 1.4 5.9 2.8 2.5 2.8 2.5 6.6 2.5 9.6 0 3.5 0 7.8-3.1 11.2-3.1 3.4-6.5 3.4-9.8 3.4h-25.6c-2.7 0-5.1.3-7.3-2.1-.5-.6-1.8-2.4-1.8-5.4V57.5c0-2 .5-4.1 1.7-5.5 1.6-1.9 4-2.2 5.7-2.2h26.2zm-23.6 22.4h19.6c2 0 4.1 0 5.5-1.9.4-.5 1.1-1.8 1.1-5.4 0-1.5-.1-4.1-1.8-5.7-1.5-1.4-3.3-1.4-5-1.4h-16.5c-.8 0-1.7-.1-2.3.6-.6.7-.7 1.8-.7 2.4l.1 11.4zm0 19.1c0 1.8.2 2.7.6 3.1.8.9 2.5.8 3.3.8h15.9c1.6 0 4.4-.1 5.9-1.9 1.1-1.4 1.4-3.7 1.4-5.4 0-1.5-.2-4-1.1-5.4-.6-.8-2.1-2.2-5.4-2.2h-20.5l-.1 11zM218 95.3h29.7c4.8 0 5-4 5-5.8 0-2.1-.5-4.6-5.2-6l-21.1-6.7c-.8-.2-4.2-1.4-6.3-4-2.4-2.9-2.8-7.1-2.8-10.1 0-3.2.4-7.1 3.4-9.9 2.8-2.6 6.2-3 8.8-3h30.8v8H233c-1.4 0-3 .1-4.2 1.2-1.3 1.2-1.4 3.1-1.4 4.1 0 2.4.7 4.7 5 6l19.6 6.2c3.6 1.1 6 2.3 7.6 3.8 3.2 3.1 3.5 7.8 3.5 10.3 0 3.4-.5 7.1-2.7 9.9-2.7 3.4-6 3.8-9.6 3.8H218v-7.8zM283.3 55.2c1.9-4.5 4-6 8.8-6 4.6 0 6.9 1.5 8.8 6l20.2 48.1h-10.6L305 89.8h-25.8l-5.4 13.5h-10.6l20.1-48.1zm-1.5 27.4h20.6l-8.7-21.8c-.3-.8-.8-2.2-1.5-2.2s-1.2 1.5-1.5 2.2l-8.9 21.8zM330.3 103.3c-1.8 0-3.7-.4-5-1.4-.8-.7-1.9-2.1-1.9-4.4V49.8h10.1v42.6c0 .6-.1 1.6.7 2.3.3.2.9.6 2.5.6h29.4v8h-35.8zM377.3 103.3c-2.3 0-4.4 0-6.1-1.7-1.8-1.8-2-4.2-2-6.3V57.4c0-2.1.7-4.3 1.8-5.6 1.8-1.9 4.4-2.1 6.4-2.1h34.3v8h-28.9c-.9 0-2 .1-2.8.8-.8.8-.8 1.8-.8 2.6v10.8H411v8h-31.7v12.5c0 .8.3 1.7.8 2.1.6.6 1.8.7 3.4.7h28.6v8h-34.8v.1zM417.4 95.3H447c4.8 0 5-4 5-5.8 0-2.1-.5-4.6-5.2-6l-21.1-6.7c-.8-.2-4.2-1.4-6.3-4-2.4-2.9-2.8-7.1-2.8-10.1 0-3.2.4-7.1 3.4-9.9 2.8-2.6 6.2-3 8.8-3h30.8v8h-27.4c-1.4 0-3 .1-4.2 1.2-1.3 1.2-1.4 3.1-1.4 4.1 0 2.4.7 4.7 5 6l19.6 6.2c3.6 1.1 6 2.3 7.6 3.8 3.2 3.1 3.5 7.8 3.5 10.3 0 3.4-.5 7.1-2.7 9.9-2.7 3.4-6 3.8-9.6 3.8h-32.9v-7.8h.3z"/></g><path class="lab1" d="M44.4 46.4L26.8 4c-.6-1.4-1.1-2.4-1.7-2.9C24.4.4 23.4 0 22.2 0s-2.2.4-2.9 1.1c-.6.5-1.1 1.5-1.7 2.9L0 46.5v49c0 2.6.5 4.4 1.6 5.6s2.7 1.7 4.8 1.7h31.7c2.1 0 3.7-.6 4.8-1.7 1.1-1.2 1.6-3 1.6-5.6l-.1-49.1zm-4.3 0V54c-.7-.4-1.5-.7-2.4-.8-1.5-.2-2.9.2-4 1l-8.2-8.6c.3-.6.5-1.2.6-1.8.4-3.2-1.8-6.1-5-6.5s-6.1 1.8-6.5 5c-.2 1.9.5 3.7 1.8 5L12.7 55c-.2 0-.4-.1-.6-.1-.9-.1-1.9 0-2.7.3l-4.7-9.7L20.8 4.8c.4-1 .9-1.5 1.4-1.5s.9.5 1.4 1.5l16.5 41.6z"/><path class="lab2" d="M40.1 63.8v32c0 1.2-.2 2-.6 2.4s-1.2.6-2.3.6h-30c-1.1 0-1.9-.2-2.3-.6s-.6-1.2-.6-2.4V51.4l2.6 5.4c-.7.8-1.1 1.8-1.3 3-.4 3.2 1.8 6.1 5 6.5s6.1-1.8 6.5-5c.2-1.9-.5-3.7-1.7-4.9l3.7-7.7c.2 0 .4.1.6.1 1.4.2 2.8-.2 3.9-.9l8.3 8.6c-.3.5-.4 1.1-.5 1.7-.4 3.2 1.8 6.1 5 6.5 1.3.1 2.6-.2 3.7-.9z"/></svg>