<?xml version="1.0" encoding="utf-8"?>
<!-- Generator: Adobe Illustrator 21.1.0, SVG Export Plug-In . SVG Version: 6.00 Build 0)  -->
<svg version="1.1" xmlns="http://www.w3.org/2000/svg" xmlns:xlink="http://www.w3.org/1999/xlink" x="0px" y="0px"
	 viewBox="0 0 137 137" style="enable-background:new 0 0 137 137;" xml:space="preserve">
<style type="text/css">
	.st0{fill:url(#SVGID_1_);}
	.st1{fill:url(#SVGID_2_);}
	.st2{fill:url(#SVGID_3_);}
</style>
<g id="background">
</g>
<g id="objects">
	<g>
		<radialGradient id="SVGID_1_" cx="13.3224" cy="140.7463" r="181.5989" gradientUnits="userSpaceOnUse">
			<stop  offset="0" style="stop-color:#FEC053"/>
			<stop  offset="0.3273" style="stop-color:#F2203E"/>
			<stop  offset="0.6485" style="stop-color:#B729A8"/>
			<stop  offset="1" style="stop-color:#5342D6"/>
		</radialGradient>
		<path class="st0" d="M107.7,137H29.3C13.2,137,0,123.8,0,107.7V29.3C0,13.2,13.2,0,29.3,0h78.3C123.8,0,137,13.2,137,29.3v78.3
			C137,123.8,123.8,137,107.7,137z M29.3,16C22,16,16,22,16,29.3v78.3c0,7.3,6,13.3,13.3,13.3h78.3c7.3,0,13.3-6,13.3-13.3V29.3
			c0-7.3-6-13.3-13.3-13.3H29.3z"/>
	</g>
	<g>
		<radialGradient id="SVGID_2_" cx="13.3235" cy="140.7466" r="181.597" gradientUnits="userSpaceOnUse">
			<stop  offset="0" style="stop-color:#FEC053"/>
			<stop  offset="0.3273" style="stop-color:#F2203E"/>
			<stop  offset="0.6485" style="stop-color:#B729A8"/>
			<stop  offset="1" style="stop-color:#5342D6"/>
		</radialGradient>
		<path class="st1" d="M68.5,106.3c-20.9,0-37.8-17-37.8-37.8s17-37.8,37.8-37.8c20.9,0,37.8,17,37.8,37.8S89.4,106.3,68.5,106.3z
			 M68.5,46.6c-12,0-21.8,9.8-21.8,21.8s9.8,21.8,21.8,21.8c12,0,21.8-9.8,21.8-21.8S80.5,46.6,68.5,46.6z"/>
	</g>
	<g>
		<radialGradient id="SVGID_3_" cx="13.3235" cy="140.7516" r="181.602" gradientUnits="userSpaceOnUse">
			<stop  offset="0" style="stop-color:#FEC053"/>
			<stop  offset="0.3273" style="stop-color:#F2203E"/>
			<stop  offset="0.6485" style="stop-color:#B729A8"/>
			<stop  offset="1" style="stop-color:#5342D6"/>
		</radialGradient>
		<circle class="st2" cx="107.2" cy="31.8" r="6.8"/>
	</g>
</g>
</svg>
