<?xml version="1.0" encoding="utf-8"?>
<!-- Generator: Adobe Illustrator 20.1.0, SVG Export Plug-In . SVG Version: 6.00 Build 0)  -->
<svg version="1.1" xmlns="http://www.w3.org/2000/svg" xmlns:xlink="http://www.w3.org/1999/xlink" x="0px" y="0px"
	 viewBox="0 0 186.1 76.3" style="enable-background:new 0 0 186.1 76.3;" xml:space="preserve" width="170" height="70">
<style type="text/css">
	.logofill0{fill:#FFFFFF;}
	.logofill1{fill:#B18D59;}
</style>
<g>
	<path class="logofill0" d="M26.1,42.5h-5.6l-6.3,12.9l-6-12.9H2.7v0.3C3.6,43.1,4,43.4,4,44.1c0,0.2,0,0.5-0.1,0.9L1.8,58.5
		c-0.2,1.6-0.6,2.2-1.8,2.3v0.4h6.7v-0.4c-1-0.2-1.5-0.8-1.5-1.7v-0.7l1.7-10.3l6.2,13h2.3l6.3-13l1.7,10.3c0,0.1,0.1,0.3,0.1,0.5
		c0,0.9-0.5,1.6-1.6,1.8v0.4h6.7v-0.4c-1.1-0.1-1.4-0.7-1.6-2.2l-2.1-13.4c0-0.1-0.1-0.7-0.1-0.9c0-0.8,0.5-1.3,1.4-1.5V42.5z
		 M34.7,61.2h9.9c4,0,6.5-2.1,6.5-5.8c0-3.4-2.2-5.6-6.5-5.6h-5v-4.6c0-1.5,0.5-2.1,1.5-2.3v-0.3h-6.4v0.3c1.2,0.3,1.5,0.9,1.5,2.3
		v13.3c0,1.4-0.3,2-1.5,2.3V61.2z M129.4,42.5H123v0.3c0.5,0.2,0.7,0.5,0.7,0.9c0,0.3,0,0.5-0.1,0.7l-6.5,14.8
		c-0.5,1.1-0.9,1.4-1.6,1.5v0.4h6.3v-0.4c-0.7,0-1.2-0.4-1.2-1.1c0-0.2-0.1-0.4,0.1-0.7l1.2-2.6h8.8l1.2,2.6
		c0.1,0.3,0.2,0.7,0.2,0.9c0,0.6-0.5,1-1.3,1v0.4h6.4v-0.4c-0.8-0.1-1.1-0.5-1.6-1.7l-6.6-15.2c-0.1-0.3-0.2-0.4-0.2-0.5
		c0-0.3,0.2-0.4,0.7-0.5V42.5z M154.3,44.7l-6.8,6.5v-6c0-1.4,0.3-2.1,1.5-2.3v-0.3h-6.4v0.3c1.1,0.3,1.5,0.9,1.5,2.3v13.3
		c0,1.5-0.3,2-1.5,2.3v0.4h6.4v-0.4c-1.1-0.2-1.5-0.8-1.5-2.3v-3l3.8-3.6l4.4,6.8L156,59c0.3,0.4,0.3,0.7,0.3,0.9
		c0,0.5-0.3,0.8-1.1,0.9v0.4h6.8v-0.4c-0.7,0-0.9-0.2-1.7-1.5l-6.7-9.9l5-4.7c0-0.1,0.1-0.1,0.2-0.2c1.2-1.3,1.6-1.5,2.2-1.7v-0.3
		h-6.9v0.3c0.5,0.1,0.8,0.3,0.8,0.7C154.8,43.9,154.7,44.3,154.3,44.7L154.3,44.7z M111.1,60.8c-0.7,0-1.1-0.5-1.9-1.5l-6-7.4
		l5.9-7.5c1-1.3,1.2-1.5,1.9-1.5v-0.3h-6.8l-0.1,0.3c0.5,0.1,0.9,0.4,0.9,0.8c0,0.2-0.1,0.3-0.2,0.6l-3.9,4.8l-3.8-4.8
		c0-0.1-0.3-0.5-0.3-0.7c0-0.4,0.3-0.7,0.8-0.8v-0.3H91v0.3c0.6,0,0.9,0.2,1.9,1.6l5.9,7.4l-6,7.4c-0.8,1-1.2,1.5-1.9,1.5v0.4h6.8
		v-0.4C97.2,60.7,97,60.5,97,60c0-0.1,0.1-0.3,0.1-0.5l3.9-4.8l3.8,4.9c0.1,0.2,0.1,0.3,0.1,0.5c0,0.5-0.3,0.7-0.8,0.8l0.1,0.4h6.8
		V60.8z M83.7,47.5l1.4-4.3h-0.3c-0.2,0.2-0.5,0.3-0.9,0.3c-0.5,0-0.8-0.1-1.3-0.3c-1.8-0.8-3.9-1.2-5.5-1.2
		c-5.8,0-10.2,4.3-10.2,9.8c0,5.6,4.4,9.9,10.6,9.9c1.5,0,3.6-0.1,5.5-1.1c0.5-0.2,0.7-0.3,1.1-0.3c0.3,0,0.5,0.1,0.8,0.3l0.3-0.1
		L84.1,56h-0.3c-0.8,1.6-3.2,2.6-6.1,2.6c-4.3,0-7.2-2.8-7.2-6.7c0-4,2.9-6.9,6.9-6.9c2.5,0,4.7,1,6,2.5H83.7z M54.8,42.5v0.3
		c1.2,0.3,1.5,0.9,1.5,2.3v13.3c0,1.4-0.3,2-1.5,2.3v0.4h6.4v-0.4c-1.1-0.2-1.5-0.9-1.5-2.3V45.2c0-1.5,0.5-2.1,1.5-2.3v-0.3H54.8z
		 M39.6,58.2v-5.2h4.9c2,0,3.1,0.9,3.1,2.6c0,1.8-1.2,2.6-3.1,2.6H39.6z M126.3,46.4l3,6.9h-6.2L126.3,46.4z M182.9,44.7
		c-1.9-1.7-4.3-2.6-7-2.6c-6,0-10.4,4.4-10.4,9.8c0,5.4,4.6,9.7,10.3,9.7c5.7,0,10.3-4.3,10.3-9.7C186.1,49.3,184.9,46.6,182.9,44.7
		L182.9,44.7z M169,51.9c0-3.7,3-6.7,6.8-6.7c3.8,0,6.8,3,6.8,6.7c0,3.7-3,6.7-6.8,6.7C172,58.6,169,55.6,169,51.9z"/>
	<path class="logofill1" d="M66.9,69.7h2v0.1c-0.4,0.1-0.5,0.3-0.5,0.7v4.2c0,0.5,0.1,0.7,0.5,0.7v0.1h-2v-0.1c0.4-0.1,0.5-0.3,0.5-0.7V73
		h-3.2v1.8c0,0.5,0.1,0.7,0.5,0.7v0.1h-2v-0.1c0.4-0.1,0.5-0.3,0.5-0.7v-4.2c0-0.5-0.1-0.6-0.5-0.7v-0.1h2v0.1
		c-0.4,0.1-0.5,0.3-0.5,0.7V72h3.2v-1.5c0-0.5-0.1-0.6-0.5-0.7V69.7z M52.1,73.8v-3.3c0-0.4,0.1-0.6,0.5-0.7v-0.1h-2v0.1
		c0.4,0.1,0.5,0.3,0.5,0.7v5h0.9l3.8-4.2v3.4c0,0.5-0.1,0.7-0.5,0.7v0.1h2v-0.1c-0.4-0.1-0.5-0.3-0.5-0.7v-4.2
		c0-0.4,0.1-0.7,0.5-0.7v-0.1h-1.5L52.1,73.8z M133.5,69.8c0.4,0.1,0.5,0.3,0.5,0.7V72h-3.2v-1.5c0-0.5,0.1-0.7,0.5-0.7v-0.1h-2v0.1
		c0.4,0.1,0.5,0.3,0.5,0.7v4.2c0,0.5-0.1,0.6-0.5,0.7v0.1h2v-0.1c-0.3-0.1-0.5-0.3-0.5-0.7V73h3.2v1.8c0,0.5-0.1,0.6-0.5,0.7v0.1h2
		v-0.1c-0.4-0.1-0.5-0.3-0.5-0.7v-4.2c0-0.5,0.1-0.7,0.5-0.7v-0.1h-2V69.8z M145.9,70.6v4.2c0,0.5,0.1,0.6,0.5,0.7v0.1h-2v-0.1
		c0.3-0.1,0.5-0.3,0.5-0.7v-1.5h-1.3l-1,1.5c-0.1,0.2-0.1,0.3-0.1,0.4c0,0.2,0.1,0.3,0.3,0.3v0.1h-2.3v-0.1c0.2,0,0.4-0.1,0.5-0.3
		l0.2-0.2c0-0.1,0.1-0.1,0.1-0.1l1.2-1.6c-0.8-0.2-1.3-0.9-1.3-1.7c0-0.6,0.3-1.1,0.8-1.5c0.3-0.2,0.7-0.3,1.3-0.3h3.3v0.1
		C146.1,69.9,145.9,70.1,145.9,70.6z M144.9,70.7h-1.6c-0.3,0-0.5,0-0.6,0.1c-0.3,0.1-0.5,0.4-0.5,0.7c0,0.5,0.4,0.9,1.1,0.9h1.6
		V70.7z M45.3,73.9c0,0.6-0.3,1.2-0.8,1.5c-0.3,0.2-0.7,0.2-1.2,0.2h-3.6v-0.1c0.4-0.1,0.5-0.3,0.5-0.7v-4.2c0-0.4-0.1-0.6-0.5-0.7
		v-0.1h3.5c0.5,0,0.7,0,1,0.2c0.4,0.2,0.7,0.7,0.7,1.2s-0.2,0.9-0.7,1.2C44.9,72.7,45.3,73.2,45.3,73.9z M41.3,72H43
		c0.3,0,0.4,0,0.5-0.1c0.2-0.1,0.3-0.3,0.3-0.6c0-0.3-0.1-0.5-0.3-0.6c-0.1-0.1-0.2-0.1-0.5-0.1h-1.8V72z M44.2,73.8
		c0-0.3-0.2-0.6-0.4-0.7C43.6,73,43.4,73,43.2,73h-1.9v1.7h2c0.3,0,0.4,0,0.6-0.1C44,74.4,44.2,74.1,44.2,73.8z M101.9,74.7h-2.9V73
		h2c0.2,0,0.3,0,0.4,0.2h0.1v-1.3h-0.1c-0.1,0.1-0.2,0.1-0.4,0.1h-2v-1.3h2.9c0.2,0,0.3,0,0.5,0.2h0.1v-1.3h-0.1
		c-0.1,0.1-0.2,0.1-0.5,0.1h-4.4v0.1c0.4,0.1,0.5,0.3,0.5,0.7v4.2c0,0.5-0.1,0.7-0.5,0.7v0.1h4.6c0.2,0,0.3,0,0.4,0.1h0.1v-1.4h-0.1
		C102.3,74.6,102.1,74.7,101.9,74.7z M79.6,70.4c0.6,0.6,1,1.5,1,2.3c0,1.7-1.4,3.1-3.2,3.1c-1.8,0-3.2-1.4-3.2-3.1
		c0-0.8,0.3-1.6,0.9-2.2c0.6-0.6,1.4-0.9,2.3-0.9C78.3,69.6,79.1,69.9,79.6,70.4z M79.6,72.7c0-1.2-1-2.1-2.1-2.1
		c-1.2,0-2.1,1-2.1,2.1c0,1.2,0.9,2.1,2.1,2.1C78.6,74.8,79.6,73.9,79.6,72.7z M113.7,75l-2-4.8c0-0.1-0.1-0.1-0.1-0.2
		c0-0.1,0.1-0.1,0.2-0.2v-0.1h-2v0.1c0.2,0,0.2,0.1,0.2,0.3c0,0.1,0,0.1,0,0.2l-2,4.6c-0.2,0.4-0.2,0.4-0.5,0.5v0.1h2v-0.1
		c-0.2,0-0.4-0.1-0.4-0.3c0-0.1,0-0.1,0.1-0.2l0.4-0.8l0.4-1l0.9-2.2l0.9,2.2l0.4,1l0.3,0.8c0,0.1,0.1,0.2,0.1,0.3
		c0,0.2-0.1,0.3-0.4,0.3v0.1h2v-0.1C114,75.4,113.9,75.3,113.7,75z M91.1,74.7h1.1l-0.4,1.6h-0.1c-0.1-0.2-0.2-0.7-0.6-0.7h-1.6v0
		h-1.9v0h-1.3c-0.4,0-0.5,0.4-0.6,0.7h-0.1l-0.4-1.6h1c0.7-1.4,1-3.5,0.9-4.4c0-0.2-0.1-0.3-0.4-0.4l0-0.1c0,0,0.7,0,1.2,0
		c0,0,0.1,0,0.1,0h1.3h2v0.1c-0.3,0.1-0.4,0.2-0.5,0.5c0,0.1,0,0.2,0,0.3v1V74.7z M90,70.7h-1.8c-0.1,1.4-0.4,3-0.8,4h0.3h2H90v-3.1
		V70.7z M119.7,75.6h4v-0.7h-4V75.6z M123.8,72.8c0,0.6-0.3,1.2-0.8,1.4c-0.3,0.1-0.6,0.2-1,0.2h-1.2c0,0-0.1,0-0.2,0
		c-0.2,0-0.6,0-0.9,0v-3.8c0-0.5-0.1-0.6-0.5-0.7v-0.1h2v0.1c-0.3,0.1-0.5,0.3-0.5,0.7v0.7h1.2c0.4,0,0.7,0,1,0.2
		C123.4,71.6,123.8,72.2,123.8,72.8z M122.7,72.8c0-0.4-0.3-0.6-0.8-0.6h-1.2v1.2h1.2c0.2,0,0.3,0,0.4-0.1
		C122.5,73.3,122.7,73.1,122.7,72.8z"/>
	<path class="logofill1" d="M78.5,35.6v-0.3h1.2v-4.3c-0.3,0.2-1.1,0.7-1.3,1l-0.5-0.8c0.9-0.4,2.2-1.2,3.1-1.9l0.2,0.2
		c-0.1,0.5-0.1,1.1-0.1,1.9v4h1.1v0.3H78.5z M88.4,35.7c-1.7,0-2.6-0.6-2.6-1.7c0-0.7,0.4-1.3,1.3-1.8c-0.7-0.4-1.2-0.8-1.2-1.5
		c0-1,0.9-1.5,2.4-1.5c1.4,0,2.4,0.5,2.4,1.5c0,0.6-0.2,1-1.1,1.5c0.9,0.5,1.3,1.1,1.3,1.8C91,35,90.2,35.7,88.4,35.7z M88.3,32.8
		l-0.4-0.2c-0.7,0.5-0.8,0.9-0.8,1.3c0,0.6,0.4,1,1.3,1c0.8,0,1.1-0.5,1.1-0.9C89.5,33.6,89.2,33.2,88.3,32.8z M88.4,30
		c-0.6,0-1,0.3-1,0.7c0,0.4,0.3,0.7,1.1,1l0.4,0.2c0.5-0.4,0.7-0.9,0.7-1.1C89.5,30.2,89.1,30,88.4,30z M97.4,35.7
		c-1.5,0-2.6-0.7-2.6-2.4c0-2.5,2-3.9,3.9-4.3l0.4,0.7c-1.4,0.3-2.2,1.2-2.5,2.2c0.3-0.1,0.7-0.2,1-0.2c1.4,0,2.3,0.7,2.3,2
		C99.8,34.8,99,35.7,97.4,35.7z M97.4,32.5c-0.4,0-0.8,0.1-1,0.2c0,0.3-0.1,0.5-0.1,0.6c0,1,0.3,1.6,1.1,1.6c0.5,0,1-0.3,1-1.2
		C98.4,33,98.1,32.5,97.4,32.5z M104.5,35.9l-0.4-0.7c1.4-0.3,2.2-1.2,2.6-2.2c-0.4,0.1-0.7,0.2-1.1,0.2c-1.4,0-2.3-0.8-2.3-2
		c0-1.1,0.8-2,2.5-2c1.5,0,2.6,0.7,2.6,2.4C108.3,34.1,106.3,35.5,104.5,35.9z M105.8,30c-0.5,0-1,0.3-1,1.2c0,0.7,0.3,1.2,1,1.2
		c0.4,0,0.8-0.1,1-0.2c0-0.3,0.1-0.5,0.1-0.6C106.9,30.6,106.6,30,105.8,30z M72.1,31.7c-0.5,0-0.9,0.4-0.9,0.9
		c0,0.5,0.4,0.9,0.9,0.9c0.5,0,1-0.4,1-0.9C73,32.1,72.6,31.7,72.1,31.7z M114,31.7c-0.5,0-0.9,0.4-0.9,0.9c0,0.5,0.4,0.9,0.9,0.9
		c0.5,0,0.9-0.4,0.9-0.9C115,32.1,114.6,31.7,114,31.7z"/>
	<path class="logofill1" d="M79.5,9.8c0-0.3,0.1-0.6,0.2-0.8c0.2-0.2,0.4-0.4,0.7-0.4c0,0,0.1,0,0.1,0c0.6,0,1,0.4,1.1,1
		c0,0.3-0.1,0.6-0.2,0.8c-0.2,0.2-0.5,0.4-0.7,0.4c0,0-0.1,0-0.1,0C80,10.8,79.5,10.3,79.5,9.8z M91.6,1.6c-0.1-1,0.7-1.6,1.5-1.6
		c0.8,0,1.6,0.6,1.5,1.6c4-0.9,0.5,4.2-1,4.8c-0.2-1-0.2-2.2-0.5-3v0l0,0c-0.3,0.9-0.3,2.1-0.5,3C91.1,5.8,87.6,0.7,91.6,1.6z
		 M94.7,3.2c0,0.1,0.1,0.2,0.2,0.2c0.1,0,0.2-0.1,0.2-0.2C95.1,3.1,95,3,94.9,3C94.8,3,94.7,3.1,94.7,3.2z M103.4,19.5
		c-0.1,0-0.3,0-0.4,0c-0.9,0-1.7,0.4-1.8,0.9c-0.1,0.5,0.7,1.2,2,1.3c0.1,0,0.3,0,0.4,0c1,0,1.7-0.4,1.8-0.9c0-0.3-0.1-0.5-0.5-0.8
		C104.6,19.7,104,19.5,103.4,19.5z M87,9.1c-1,4,4.2,0.6,4.8-1c-1-0.1-2.2-0.2-3.2-0.4c1.1-0.1,2.1-0.3,3.2-0.4
		c-1.3-1.1-2.9-3.7-5.1-2.5C86.5,5.5,87,6,87,6.4C84.7,6.1,84.9,9.4,87,9.1z M115.7,13.5c-0.7-0.8-1.6-1.3-2.3-2.1
		c0.8,0.3,1.8,0.9,2.8,1.3c0-2-2.3-7.1-3.5-3.4c-1.8-1.5-3.5,1.5-1.6,2.3C107.9,13.9,113.7,14.7,115.7,13.5z M105.5,11.9
		c0,0.3,0,0.6,0.2,0.8c0.2,0.2,0.5,0.4,0.7,0.4c0,0,0.1,0,0.1,0c0.6,0,1-0.4,1.1-1c0-0.3-0.1-0.6-0.2-0.8c-0.2-0.2-0.4-0.4-0.7-0.4
		c0,0-0.1,0-0.1,0C106.1,10.9,105.6,11.3,105.5,11.9z M105.4,10.7c0,0,0.1,0,0.1,0c0.6,0,1-0.4,1.1-1c0-0.3-0.1-0.6-0.2-0.8
		c-0.2-0.2-0.4-0.4-0.7-0.4c0,0-0.1,0-0.1,0c-0.6,0-1,0.4-1.1,1c0,0.3,0.1,0.6,0.2,0.8C104.9,10.6,105.1,10.7,105.4,10.7z
		 M103.9,12.8c0,0,0.1,0,0.1,0c0.6,0,1-0.4,1.1-1c0.1-0.6-0.4-1.2-1-1.2c0,0-0.1,0-0.1,0c-0.6,0-1,0.4-1.1,1c0,0.3,0.1,0.6,0.2,0.8
		C103.3,12.6,103.6,12.8,103.9,12.8z M94.3,7.3c1.1,0.1,2.1,0.3,3.2,0.4c-1,0.2-2.1,0.3-3.2,0.4c0.6,1.6,5.9,5,4.8,1
		c2.1,0.3,2.3-3,0-2.7c0-0.4,0.5-0.9,0.3-1.6C97.2,3.7,95.6,6.2,94.3,7.3z M81,11.8c0.1,0.6,0.5,1,1.1,1c0,0,0.1,0,0.1,0
		c0.3,0,0.6-0.2,0.7-0.4c0.2-0.2,0.3-0.5,0.2-0.8c-0.1-0.6-0.5-1-1.1-1c0,0-0.1,0-0.1,0C81.4,10.7,81,11.2,81,11.8z M113.4,21
		c-0.5-0.1-1-0.2-1.5-0.2c-0.8,0-1.6,0.1-2.2,0.4c0.7,0.8,1.9,1.4,3.3,1.7c0.1,0,0.2,0,0.2,0c0.6,0,0.9-0.5,0.9-0.9
		C114.2,21.7,114.1,21.2,113.4,21z M83.1,19.4c-0.1,0-0.3,0-0.4,0c-0.6,0.1-1.1,0.3-1.5,0.5c-0.3,0.2-0.5,0.5-0.5,0.8
		c0.1,0.5,0.8,0.9,1.8,0.9c0.1,0,0.3,0,0.4,0c1.2-0.1,2-0.8,2-1.3C84.8,19.8,84.1,19.4,83.1,19.4z M112.1,24.1
		c-6-1.1-12.7-1.8-19-1.8h-0.3c-6.3,0-13,0.6-19.1,1.8c0.1-0.5,0.8-1,1.4-1.3c0.8-0.4,1.4-0.9,1.7-1.4l0.1-0.1l0.1-0.3l-0.3-0.2
		c-0.6-0.4-1.4-0.6-2.4-0.6l-0.4,0c-0.5,0-0.9-0.1-1.2-0.3c-0.2-0.1-0.2-0.2-0.3-0.3l0.1-0.1c0.1,0,0.1,0,0.2,0
		c2.2-0.4,4.5-0.8,7.3-1.1l0.4,0c1.1-0.1,2.2-0.2,3.3-0.3c1.2-0.1,2.4-0.2,3.6-0.3l0.7,0c1.6-0.1,3.2-0.1,4.8-0.1l0.3,0
		c1.6,0,3.2,0,4.8,0.1l0.7,0c1.2,0.1,2.4,0.1,3.6,0.3c1.1,0.1,2.1,0.2,3.2,0.3l0.5,0.1c2.8,0.3,5.2,0.7,7.3,1.1c0,0,0.4,0.1,0.4,0.1
		l0,0l-0.1,0c0,0-0.1,0.1-0.3,0.2c-0.2,0.2-0.7,0.3-1.2,0.3l-0.3,0c-1.1,0.1-1.9,0.3-2.5,0.6l-0.3,0.2l0.1,0.2
		c0.5,0.6,1.1,1.1,1.9,1.5C111.4,23.1,112.1,23.6,112.1,24.1z M78.6,20.9c0.5,0,0.8-0.4,0.8-0.8c0-0.4-0.4-0.8-0.8-0.8
		c-0.5,0-0.8,0.4-0.8,0.8C77.8,20.5,78.2,20.9,78.6,20.9z M79.7,22c0-0.4-0.4-0.8-0.8-0.8c-0.5,0-0.8,0.4-0.8,0.8
		c0,0.4,0.4,0.8,0.8,0.8C79.4,22.8,79.7,22.5,79.7,22z M85.5,20.3c-0.1-0.8-1.1-1.4-2.4-1.4c-0.2,0-0.3,0-0.5,0
		c-0.7,0.1-1.3,0.3-1.8,0.6c-0.5,0.4-0.8,0.8-0.7,1.3c0.1,0.8,1.1,1.4,2.4,1.4c0.2,0,0.3,0,0.5,0c0.9-0.1,1.8-0.5,2.2-1
		C85.4,20.9,85.5,20.6,85.5,20.3z M86.1,19.1c0,0.4,0.3,0.8,0.8,0.8c0,0,0,0,0,0c0.5,0,0.8-0.3,0.9-0.8c0-0.2-0.1-0.4-0.2-0.6
		c-0.1-0.2-0.4-0.3-0.6-0.3h0C86.5,18.4,86.1,18.7,86.1,19.1z M87.9,21.2c0-0.2-0.1-0.4-0.2-0.6c-0.2-0.2-0.4-0.3-0.6-0.3l0,0
		c-0.4,0-0.8,0.3-0.8,0.8c0,0.2,0.1,0.4,0.2,0.6c0.1,0.2,0.4,0.3,0.6,0.3c0,0,0,0,0,0C87.5,22,87.9,21.6,87.9,21.2z M97.7,20.1
		l-0.2-0.3c-1-0.9-2.6-1.4-4.3-1.4l-0.2,0c0,0,0,0-0.1,0c-1.8,0-3.4,0.5-4.3,1.4L88.4,20l0.1,0.2c1.1,0.9,2.7,1.5,4.4,1.5l0.2,0l0,0
		c0,0,0,0,0.1,0c1.8,0,3.4-0.5,4.4-1.4L97.7,20.1z M99.9,21.1c0-0.4-0.4-0.8-0.8-0.8h0l0,0c-0.5,0-0.8,0.4-0.8,0.8
		c0,0.4,0.4,0.8,0.8,0.8c0.3,0,0.5-0.1,0.6-0.3C99.8,21.5,99.9,21.3,99.9,21.1z M100,19.1c0-0.4-0.4-0.8-0.8-0.8h0h0
		c-0.2,0-0.4,0.1-0.6,0.3c-0.1,0.2-0.2,0.4-0.2,0.6c0,0.4,0.4,0.8,0.8,0.8C99.7,20,100.1,19.6,100,19.1z M106,20.9
		c0.1-0.5-0.2-1-0.7-1.3c-0.5-0.3-1.1-0.6-1.8-0.6c-0.2,0-0.3,0-0.5,0l0,0c-1.3,0-2.3,0.6-2.4,1.4c0,0.3,0.1,0.6,0.3,0.9
		c0.4,0.5,1.3,0.9,2.2,1c0.2,0,0.3,0,0.5,0C104.9,22.2,105.9,21.7,106,20.9z M108,22c0-0.4-0.4-0.8-0.8-0.8c-0.5,0-0.8,0.4-0.8,0.8
		c0,0.4,0.4,0.8,0.8,0.8C107.7,22.8,108,22.5,108,22z M108.3,20c0-0.4-0.4-0.8-0.8-0.8c-0.5,0-0.8,0.4-0.8,0.8
		c0,0.4,0.4,0.8,0.8,0.8C107.9,20.9,108.3,20.5,108.3,20z M96.8,20c-0.1-0.1-0.2-0.1-0.3-0.2c-0.9-0.6-2-0.9-3.3-0.9
		c0,0-0.1,0-0.1,0c0,0-0.1,0-0.1,0c-1.3,0-2.4,0.3-3.3,0.9c-0.1,0.1-0.2,0.1-0.3,0.2c0,0,0,0,0,0c0,0,0,0-0.1,0c0.9,0.6,2.2,1,3.6,1
		c0,0,0.1,0,0.1,0c0,0,0.1,0,0.1,0C94.6,21.1,95.9,20.7,96.8,20C96.8,20.1,96.8,20.1,96.8,20C96.7,20.1,96.8,20,96.8,20z M93.1,22.9
		c0,0-0.1,0-0.1,0c-6.4,0-12.7,0.6-19,1.8c0.1,0.9,1.3,1,1.8,1c5.6-1,11.4-1.5,17.2-1.5c0,0,0.1,0,0.1,0c0,0,0,0,0,0c0,0,0,0,0,0
		c0,0,0.1,0,0.1,0c5.8,0,11.5,0.5,17.2,1.5c0.5,0.1,1.7-0.1,1.8-1c-6.2-1.2-12.6-1.8-19-1.8C93.1,22.9,93.1,22.9,93.1,22.9z
		 M70.4,13.5c2,1.1,7.8,0.4,4.6-1.9c1.9-0.8,0.3-3.7-1.6-2.3c-1.2-3.7-3.5,1.4-3.5,3.4c1-0.4,2-1,2.8-1.3
		C72,12.2,71.1,12.8,70.4,13.5z M74.2,20.9c-0.5,0-1,0.1-1.5,0.2c-0.6,0.1-0.8,0.6-0.8,1c0,0.4,0.4,0.9,0.9,0.9c0.1,0,0.2,0,0.2,0
		c1.4-0.3,2.6-0.9,3.3-1.7C75.8,21,75,20.9,74.2,20.9z M79.5,13.1c0,0,0.1,0,0.1,0c0.3,0,0.6-0.2,0.7-0.4c0.2-0.2,0.3-0.5,0.2-0.8
		c-0.1-0.6-0.5-1-1.1-1c0,0-0.1,0-0.1,0c-0.3,0-0.6,0.2-0.7,0.4c-0.2,0.2-0.3,0.5-0.2,0.8C78.4,12.7,78.9,13.1,79.5,13.1z
		 M122.5,10.4c-0.8,0.2-1.4,0-1.8-0.4c-0.9,0.9-1.8,1.8-2.3,3.1c1.5,0.5,0.2,3-1.2,1.9c-1,1.4-3.1,2.4-5.2,2.6
		c0.4,0.1,0.9,0.1,1.3,0.2c0.5,0.2,0.8,0.7,0.7,1.3c0,0,0,0.1,0,0.1c-6.8-1.3-13.8-2-20.8-2c0,0-0.1,0-0.1,0v0c0,0,0,0,0,0
		c0,0,0,0,0,0v0c0,0-0.1,0-0.1,0c-7,0-13.9,0.7-20.8,2c0,0,0-0.1,0-0.1c-0.1-0.5,0.2-1,0.7-1.3c0.4-0.1,0.9-0.1,1.3-0.2
		C72,17.4,70,16.4,68.9,15c-1.4,1.1-2.7-1.4-1.2-1.9c-0.5-1.3-1.4-2.2-2.3-3.1c-0.4,0.4-1,0.6-1.8,0.4c-2-1.9,1.5-4.1,3.1-2.3
		c0.3-0.4,0.4-0.9,0.9-1c1.8,0.3,1.6,2.9,1.5,4.7c0.8,4.4,8.7,5.3,10.7,1.4c0.8,0,1.4-0.2,2.2-0.2c4.1,3.4,11.1-0.3,9.8-5.6
		c0.1-0.6,0.6-0.9,1.2-0.9c0.5,0,1.1,0.3,1.2,0.9c-1.3,5.3,5.7,9,9.8,5.6c0.8,0,1.4,0.2,2.2,0.2c2.1,3.9,9.9,3,10.7-1.4
		c-0.2-1.9-0.3-4.5,1.5-4.7c0.5,0.1,0.7,0.6,0.9,1C121,6.3,124.4,8.5,122.5,10.4z M108.1,17c-1.3-0.6-2.3-1.4-3.1-2.4
		c-1.2,0.8-2.7,1.5-4.5,1.6c-0.6,0-1.2,0-1.9-0.1c-2.4-0.7-4.2-2-5.3-4c0,0.1-0.1,0.1-0.1,0.2c0-0.1-0.1-0.1-0.1-0.2
		c-1.1,2-2.9,3.3-5.3,4c-0.5,0.1-1.6,0.2-1.9,0.1c-1.8,0-3.3-0.8-4.5-1.6c-0.8,1-1.9,1.8-3.1,2.4C83,16.3,88,16,93,16
		c0,0,0.1,0,0.1,0c0,0,0.1,0,0.1,0C98.2,16,103.1,16.3,108.1,17z"/>
</g>
</svg>
