<?xml version="1.0" encoding="utf-8"?>
<!-- Generator: Adobe Illustrator 20.1.0, SVG Export Plug-In . SVG Version: 6.00 Build 0)  -->
<svg version="1.1" id="Capa_1" xmlns="http://www.w3.org/2000/svg" xmlns:xlink="http://www.w3.org/1999/xlink" x="0px" y="0px"
	 viewBox="0 0 170 116.8" style="enable-background:new 0 0 170 116.8;" xml:space="preserve">
<style type="text/css">
	.st0{fill:#454545;}
</style>
<g>
	<path class="st0" d="M37.3,42.5c20.5,0,37.2,16.6,37.2,37.2s-16.6,37.2-37.2,37.2S0.2,100.1,0.2,79.6L0,74.3C0,33.3,33.3,0,74.3,0
		v21.2c-14.2,0-27.5,5.5-37.5,15.5c-1.9,1.9-3.7,4-5.3,6.1C33.4,42.6,35.3,42.5,37.3,42.5z M132.8,42.5c20.5,0,37.2,16.6,37.2,37.2
		s-16.6,37.2-37.2,37.2s-37.2-16.6-37.2-37.2l-0.2-5.3c0-41,33.3-74.3,74.3-74.3v21.2c-14.2,0-27.5,5.5-37.5,15.5
		c-1.9,1.9-3.7,4-5.3,6.1C128.9,42.6,130.9,42.5,132.8,42.5z"/>
</g>
</svg>
